<svg version="1" xmlns="http://www.w3.org/2000/svg" width="1333.333" height="1333.333" viewBox="0 0 1000.000000 1000.000000"><path d="M0 500v500h1000V0H0v500zM570.8 70.7l-.3 29.8-10.5.7c-39 2.4-78.9 20.7-109.9 50.3-33.8 32.2-55.3 75-61 121.5-.7 5.4-1.1 45.7-1.1 112.2V489h183v60H388.1l-.4 89.7c-.3 85.4-.5 90.4-2.5 102.9-11 68.9-45.5 126.7-99.4 167-38.5 28.7-82.9 45.4-132.4 49.9l-7.1.6-.6-12.8c-.4-7-1-20.3-1.3-29.5l-.7-16.6 4.9-.6c14.1-1.7 30.9-4.8 38.9-7.1 69.6-20.2 122.2-77.1 137.1-148.3 3.7-18 4.4-36.5 4.4-119V549H145v-60h184V382.7c0-113.3.1-115.9 5-139.7 19.6-93.9 92.2-171.4 182.4-194.5 16.2-4.1 31.7-6.4 50.9-7.3l3.7-.2-.2 29.7zM667 43.6c45.6 6.6 88.8 25.5 124.6 54.4 10.1 8.2 28.2 26.3 36.3 36.3 29.5 36.4 48.6 80.9 55.3 128.7 1.7 12.2 1.7 51.5 0 63.5-8.8 61.8-35.3 113.1-79.7 154.6-43.6 40.7-100 64.1-161.7 67.2l-9.8.5v-59.5l12.3-.6c66.4-3.1 129.6-44.9 160.6-106.2 38.7-76.7 22.6-169.3-39.7-228.6-33.5-31.9-75.1-49.8-123.9-53.5l-9.3-.7v-59l12.3.7c6.7.4 16.9 1.4 22.7 2.2z"/></svg>